<svg width="31" height="31" viewBox="0 0 31 31" fill="none" xmlns="http://www.w3.org/2000/svg">
<g clip-path="url(#clip0_1_16368)">
<path fill-rule="evenodd" clip-rule="evenodd" d="M0.322266 0.31604H30.3223V20.2405H0.322266V0.31604Z" fill="#B20000"/>
<path fill-rule="evenodd" clip-rule="evenodd" d="M0.322266 20.2405H30.3223V30.3146H0.322266V20.2405Z" fill="#429F00"/>
<path fill-rule="evenodd" clip-rule="evenodd" d="M0.322266 0.31604H3.6425V30.3085H0.322266V0.31604Z" fill="white"/>
<path fill-rule="evenodd" clip-rule="evenodd" d="M0.479508 0.823977H0.639774V1.33191H0.479508V0.823977ZM0.954258 0.823977H1.42901V1.33191H0.957282L0.954258 0.823977ZM1.1115 0.31604H1.27177V0.823977H1.10848L1.1115 0.31604ZM1.90376 0.31604H2.061V0.823977H1.90376V0.31604ZM2.53878 0.823977H3.0105V1.33191H2.53575L2.53878 0.823977ZM2.69299 0.31604H2.85024V0.823977H2.69299V0.31604ZM0.797016 1.33191H1.11452V1.83985H0.797016V1.33191ZM1.27177 1.33191H1.58928V1.83985H1.27177V1.33191ZM2.37851 1.33191H2.69602V1.83985H2.37851V1.33191ZM2.85326 1.33191H3.16472V1.83985H2.85628L2.85326 1.33191ZM0.639774 1.83985H0.954258V2.34779H0.639774V1.83985ZM1.42901 1.83985H1.74652V2.34779H1.42901V1.83985ZM2.22127 1.83985H2.53575V2.34779H2.22127V1.83985ZM3.0105 1.83985H3.32801V2.34779H3.0105V1.83985ZM3.32801 0.823977H3.48525V1.33191H3.32801V0.823977ZM0.479508 2.34779H0.797016V2.85573H0.479508V2.34779ZM1.58625 2.34779H1.90376V2.85573H1.58625V2.34779ZM3.17077 2.34779H3.48525V2.85573H3.17077V2.34779ZM0.639774 3.8837H0.954258V4.39163H0.639774V3.8837ZM0.797016 4.39163H1.11452V4.89957H0.797016V4.39163ZM1.43203 3.8837H1.74349V4.39163H1.42901L1.43203 3.8837ZM1.27177 4.39163H1.58625V4.89957H1.27177V4.39163ZM0.954258 4.89957H1.42901V5.39541H0.957282L0.954258 4.89957ZM1.1115 5.39541H1.27177V5.9094H1.10848L1.1115 5.39541ZM2.22127 3.8716H2.53575V4.38559H2.22127V3.8716ZM2.37851 4.38559H2.69602V4.89352H2.37851V4.38559ZM3.01353 3.87765H3.32801V4.38559H3.0105L3.01353 3.87765ZM2.85326 4.38559H3.16472V4.89352H2.85628L2.85326 4.38559ZM2.53575 4.89352H3.01353V5.39541H2.53575V4.89352ZM2.69602 5.39541H2.85326V5.9094H2.69602V5.39541ZM1.90376 4.89352H2.061V5.39541H1.90376V4.89352ZM0.322266 4.89352H0.479508V5.39541H0.322266V4.89352ZM3.48525 4.89352H3.6425V5.39541H3.48525V4.89352ZM1.1115 7.43321H1.27177V7.94115H1.10848L1.1115 7.43321ZM0.954258 7.94115H1.42901V8.44909H0.957282L0.954258 7.94115ZM0.797016 8.44909H1.58928V8.95702H0.797016V8.44909ZM2.69602 7.43321H2.85326V7.94115H2.69602V7.43321Z" fill="#B20000"/>
<path fill-rule="evenodd" clip-rule="evenodd" d="M2.53575 7.94119H3.01353V8.44913H2.53575V7.94119ZM2.37851 8.44913H3.16775V8.95707H2.37851V8.44913ZM2.53575 10.9888H3.32801V11.5028H2.53575V10.9888ZM2.22127 8.96312H3.32801V9.47105H2.22127V8.96312ZM0.639774 8.96312H1.74349V9.47105H0.639774V8.96312ZM0.797016 11.5028H1.27177V12.0168H0.797016V11.5028ZM0.639774 11.0009H1.42901V11.5089H0.639774V11.0009ZM2.85326 9.97899H3.6425V10.493H2.85628L2.85326 9.97899ZM2.69602 11.5028H3.17077V12.0107H2.69602V11.5028ZM0.954258 12.0107H1.11452V12.5187H0.954258V12.0107ZM2.85326 12.0107H3.0105V12.5187H2.85326V12.0107ZM0.322266 9.97294H1.11452V10.4869H0.322266V9.97294ZM1.74349 10.9949H2.22127V11.5028H1.74349V10.9949ZM1.90376 11.5028H2.061V12.0107H1.90376V11.5028ZM1.42901 9.97294H2.53575V10.4869H1.42901V9.97294ZM2.06403 2.35388H2.37851V2.85577H2.061L2.06403 2.35388ZM1.74349 2.85577H2.21824V3.36371H1.74349V2.85577ZM1.58323 3.36371H1.90074V3.87165H1.58625L1.58323 3.36371ZM2.05798 3.36371H2.37851V3.87165H2.061L2.05798 3.36371ZM0.322266 2.85577H0.639774V3.36371H0.322266V2.85577ZM0.479508 3.36371H0.797016V3.87165H0.479508V3.36371ZM3.32801 2.85577H3.6425V3.36371H3.32801V2.85577ZM3.16472 3.36371H3.48223V3.87165H3.17077L3.16472 3.36371ZM0.322266 7.94119H0.479508V8.44913H0.322266V7.94119ZM3.48525 7.94119H3.6425V8.44913H3.48525V7.94119ZM1.74652 12.0107H2.22127V12.5187H1.74349L1.74652 12.0107ZM1.58625 12.5187H1.90376V13.0266H1.58625V12.5187ZM2.061 12.5187H2.37851V13.0266H2.061V12.5187ZM1.42901 13.0266H1.74652V13.5346H1.42901V13.0266ZM2.22127 13.0266H2.53575V13.5346H2.22127V13.0266ZM1.27177 13.5346H1.58928V14.0425H1.27177V13.5346ZM2.37851 13.5346H2.69602V14.0425H2.37851V13.5346ZM1.1115 14.0425H1.42901V14.5504H1.1115V14.0425ZM2.53575 14.0425H2.85326V14.5504H2.53575V14.0425ZM0.797016 14.5504H1.27177V15.0584H0.797016V14.5504ZM2.69602 14.5504H3.17077V15.0584H2.69602V14.5504ZM3.0105 14.0425H3.32801V14.5504H3.0105V14.0425ZM3.17077 13.5346H3.48525V14.0425H3.17077V13.5346ZM3.32801 13.0266H3.6425V13.5346H3.32801V13.0266ZM0.63675 14.0425H0.957282V14.5504H0.639774L0.63675 14.0425ZM0.479508 13.5346H0.797016V14.0425H0.479508V13.5346Z" fill="#B20000"/>
<path fill-rule="evenodd" clip-rule="evenodd" d="M0.322266 13.0266H0.639774V13.5346H0.322266V13.0266ZM0.957282 15.0584H1.11452V15.5663H0.954258L0.957282 15.0584ZM2.85326 15.0584H3.0105V15.5663H2.85326V15.0584ZM1.90376 13.5346H2.061V14.0425H1.90376V13.5346ZM1.42901 15.0584H1.58625V15.5663H1.42901V15.0584ZM2.37851 15.0584H2.53575V15.5663H2.37851V15.0584ZM1.90376 15.0584H2.061V15.5663H1.90376V15.0584ZM0.322266 15.0584H0.479508V15.5663H0.322266V15.0584ZM3.48525 15.0584H3.6425V15.5663H3.48525V15.0584ZM1.90376 7.94119H2.061V8.44913H1.90376V7.94119ZM1.11452 2.86182H1.27177V3.36371H1.11452V2.86182ZM2.69602 2.86182H2.85326V3.36371H2.69602V2.86182ZM1.74349 6.41133H2.21824V6.91927H1.74349V6.41133ZM1.42901 6.92532H1.90376V7.43325H1.42901V6.92532Z" fill="#B20000"/>
<path fill-rule="evenodd" clip-rule="evenodd" d="M1.58609 7.43312H1.74636V7.94105H1.58609V7.43312ZM1.27161 6.41724H1.58911V6.92518H1.27161V6.41724ZM1.42885 5.9093H1.9036V6.41724H1.42885V5.9093ZM1.58609 5.40137H1.74636V5.9093H1.58609V5.40137ZM2.06084 5.9093H2.53559V6.41724H2.06084V5.9093ZM2.22111 5.40137H2.37835V5.9093H2.22111V5.40137ZM2.37835 6.41724H2.69586V6.92518H2.37835V6.41724ZM2.06084 6.92518H2.53559V7.43312H2.06084V6.92518ZM2.22111 7.43312H2.37835V7.94105H2.22111V7.43312ZM2.8531 6.41724H3.17061V6.92518H2.8531V6.41724ZM3.01034 5.9093H3.48509V6.41724H3.01337L3.01034 5.9093ZM3.32785 6.41724H3.64234V6.92518H3.32785V6.41724Z" fill="#B20000"/>
<path fill-rule="evenodd" clip-rule="evenodd" d="M3.01353 6.9253H3.48525V7.43324H3.01353V6.9253ZM3.17077 7.43324H3.32801V7.94118H3.17077V7.43324ZM3.17077 5.40149H3.32801V5.90943H3.17077V5.40149ZM0.322266 6.41736H0.639774V6.9253H0.322266V6.41736ZM0.479508 5.90943H0.957282V6.41736H0.479508V5.90943ZM0.797016 6.41736H1.11452V6.9253H0.797016V6.41736Z" fill="#B20000"/>
<path fill-rule="evenodd" clip-rule="evenodd" d="M0.479508 6.9253H0.957282V7.43324H0.479508V6.9253ZM0.639774 7.43324H0.797016V7.94118H0.639774V7.43324ZM0.639774 5.40149H0.797016V5.90943H0.639774V5.40149ZM0.479508 9.46499H1.11452V9.97293H0.479508V9.46499ZM1.27177 9.46499H1.90678V9.97293H1.27177V9.46499ZM2.061 9.46499H2.69602V9.97293H2.061V9.46499ZM2.85326 9.46499H3.48828V9.97293H2.85326V9.46499ZM1.58625 10.4809H2.37851V10.9948H1.58625V10.4809ZM0.479508 10.4809H1.27177V10.9948H0.479508V10.4809ZM2.69602 10.4809H3.48525V10.9948H2.69602V10.4809ZM3.48525 12.5187H3.6425V13.0266H3.48525V12.5187ZM0.322266 12.5187H0.479508V13.0266H0.322266V12.5187ZM0.479508 29.8067H0.639774V29.2927H0.479508V29.8067ZM0.954258 29.8067H1.42901V29.2927H0.957282L0.954258 29.8067ZM1.1115 30.3086H1.27177V29.8067H1.10848L1.1115 30.3086ZM1.90376 30.3086H2.061V29.8067H1.90376V30.3086ZM2.53878 29.8067H3.0105V29.2987H2.53575L2.53878 29.8067ZM2.69602 30.3086H2.85326V29.8067H2.69602V30.3086ZM0.797016 29.2927H1.11452V28.7848H0.797016V29.2927ZM1.27177 29.2927H1.58928V28.7848H1.27177V29.2927ZM2.37851 29.2927H2.69602V28.7848H2.37851V29.2927ZM2.85326 29.2927H3.16472V28.7848H2.85628L2.85326 29.2927ZM1.43203 28.7848H1.74349V28.2768H1.42901L1.43203 28.7848ZM2.21824 28.7848H2.53575V28.2768H2.22127L2.21824 28.7848ZM3.0105 28.7848H3.32801V28.2768H3.0105V28.7848ZM3.32801 29.8067H3.48525V29.2927H3.32801V29.8067ZM0.479508 28.2768H0.797016V27.7689H0.479508V28.2768ZM1.58625 28.2768H1.90376V27.7689H1.58625V28.2768ZM3.17077 28.2768H3.48525V27.7689H3.17077V28.2768ZM0.639774 26.753H0.954258V26.2451H0.639774V26.753ZM0.797016 26.2451H1.11452V25.7371H0.797016V26.2451ZM1.43203 26.753H1.74349V26.2451H1.42901L1.43203 26.753ZM1.27177 26.2451H1.58625V25.7371H1.27177V26.2451ZM0.954258 25.7371H1.42901V25.2292H0.957282L0.954258 25.7371ZM1.1115 25.2292H1.27177V24.7213H1.10848L1.1115 25.2292ZM2.22127 26.753H2.53575V26.2451H2.22127V26.753ZM2.37851 26.2451H2.69602V25.7371H2.37851V26.2451ZM3.01353 26.753H3.32801V26.2451H3.0105L3.01353 26.753ZM2.85326 26.2451H3.16472V25.7371H2.85628L2.85326 26.2451ZM2.53575 25.7371H3.01353V25.2292H2.53575V25.7371ZM2.69602 25.2292H2.85326V24.7213H2.69602V25.2292ZM1.90376 25.7371H2.061V25.2292H1.90376V25.7371ZM0.322266 25.7371H0.479508V25.2292H0.322266V25.7371ZM3.48525 25.7371H3.6425V25.2292H3.48525V25.7371ZM1.11452 23.1974H1.27177V22.6835H1.11452V23.1974Z" fill="#B20000"/>
<path fill-rule="evenodd" clip-rule="evenodd" d="M0.957282 22.6894H1.42901V22.1755H0.957282V22.6894ZM0.797016 22.1755H1.58928V21.6675H0.797016V22.1755ZM2.69602 23.1913H2.85326V22.6894H2.69602V23.1913ZM2.53575 22.6894H3.01353V22.1755H2.53575V22.6894ZM2.37851 22.1755H3.16775V21.6675H2.37851V22.1755ZM2.53575 19.6358H3.32801V19.1278H2.53575V19.6358ZM2.22127 21.6675H3.32801V21.1596H2.22127V21.6675ZM0.639774 21.6675H1.74349V21.1596H0.639774V21.6675ZM0.797016 19.1278H1.27177V18.6199H0.797016V19.1278ZM0.639774 19.6358H1.42901V19.1278H0.639774V19.6358ZM2.85326 20.6516H3.6425V20.1498H2.85628L2.85326 20.6516ZM2.69602 19.1278H3.17077V18.6199H2.69602V19.1278ZM0.322266 20.6516H1.11452V20.1498H0.322266V20.6516ZM1.74349 19.6358H2.22127V19.1278H1.74349V19.6358ZM1.90376 19.1278H2.061V18.6199H1.90376V19.1278ZM1.42901 20.6516H2.53575V20.1498H1.42901V20.6516ZM2.06403 28.2768H2.37851V27.7688H2.061L2.06403 28.2768ZM1.74349 27.7688H2.21824V27.2609H1.74349V27.7688ZM1.58323 27.2609H1.90074V26.7529H1.58625L1.58323 27.2609ZM2.05798 27.2609H2.37851V26.7529H2.061L2.05798 27.2609ZM0.322266 27.7688H0.639774V27.2609H0.322266V27.7688ZM0.479508 27.2609H0.797016V26.7529H0.479508V27.2609ZM3.32801 27.7688H3.6425V27.2609H3.32801V27.7688ZM3.16775 27.2609H3.48525V26.7529H3.17077L3.16775 27.2609ZM0.322266 22.6894H0.479508V22.1815H0.322266V22.6894ZM3.48525 22.6894H3.6425V22.1815H3.48525V22.6894ZM1.58625 18.118H1.90376V17.6101H1.58625V18.118ZM2.061 18.118H2.37851V17.6101H2.061V18.118ZM1.42901 17.6101H1.74652V17.1021H1.42901V17.6101ZM2.22127 17.6101H2.53575V17.1021H2.22127V17.6101ZM1.27177 17.0961H1.58625V16.5821H1.27177V17.0961ZM2.37851 17.0961H2.69602V16.5821H2.37851V17.0961ZM1.1115 16.5821H1.42901V16.0802H1.1115V16.5821ZM2.53575 16.5821H2.85326V16.0802H2.53575V16.5821ZM0.797016 16.0802H1.27177V15.5662H0.797016V16.0802ZM2.69602 16.0802H3.17077V15.5662H2.69602V16.0802ZM3.0105 16.5881H3.32801V16.0742H3.0105V16.5881ZM3.17077 17.09H3.48525V16.5881H3.17077V17.09ZM3.32801 17.604H3.6425V17.0961H3.32801V17.604ZM0.63675 16.5881H0.957282V16.0742H0.639774L0.63675 16.5881ZM0.479508 17.09H0.797016V16.5881H0.479508V17.09ZM0.322266 17.6101H0.639774V17.1021H0.322266V17.6101ZM0.957282 15.5723H1.11452V15.0643H0.954258L0.957282 15.5723ZM1.90376 17.1021H2.061V16.5821H1.90376V17.1021ZM1.90376 22.6955H2.061V22.1815H1.90376V22.6955ZM1.11452 27.7749H1.27177V27.2669H1.11452V27.7749ZM2.69602 27.7749H2.85326V27.2669H2.69602V27.7749ZM1.74349 24.2133H2.21824V23.7053H1.74349V24.2133ZM1.42599 23.7053H1.90074V23.1974H1.42901L1.42599 23.7053ZM1.58323 23.1913H1.74349V22.6894H1.58323V23.1913ZM1.26874 24.2133H1.58323V23.7053H1.27177L1.26874 24.2133ZM1.42901 24.7212H1.90376V24.2133H1.42901V24.7212ZM1.58625 25.2291H1.74652V24.7212H1.58625V25.2291ZM2.061 24.7212H2.53575V24.2133H2.061V24.7212ZM2.22127 25.2291H2.37851V24.7212H2.22127V25.2291ZM2.37851 24.2133H2.69602V23.7053H2.37851V24.2133ZM2.061 23.7053H2.53575V23.1974H2.061V23.7053ZM2.22127 23.1913H2.37851V22.6894H2.22127V23.1913ZM2.85326 24.2133H3.16472V23.7053H2.85628L2.85326 24.2133ZM3.0105 24.7212H3.48525V24.2133H3.01353L3.0105 24.7212ZM3.32801 24.2133H3.6425V23.7053H3.32801V24.2133ZM3.0105 23.7053H3.48525V23.1974H3.01353L3.0105 23.7053ZM3.17077 23.1913H3.32801V22.6894H3.17077V23.1913ZM3.17077 25.2291H3.32801V24.7212H3.17077V25.2291ZM0.322266 24.2133H0.639774V23.7053H0.322266V24.2133Z" fill="#B20000"/>
<path fill-rule="evenodd" clip-rule="evenodd" d="M0.479508 24.7213H0.957282V24.2133H0.479508V24.7213ZM0.797016 24.2133H1.11452V23.7054H0.797016V24.2133ZM0.479508 23.7054H0.957282V23.1974H0.479508V23.7054ZM0.639774 23.1914H0.797016V22.6895H0.639774V23.1914ZM0.639774 25.2292H0.797016V24.7213H0.639774V25.2292ZM0.479508 21.1597H1.11452V20.6517H0.479508V21.1597ZM1.27177 21.1597H1.90678V20.6517H1.27177V21.1597ZM2.061 21.1597H2.69602V20.6517H2.061V21.1597ZM2.85326 21.1597H3.48828V20.6517H2.85326V21.1597ZM1.58625 20.1498H2.37851V19.6419H1.58625V20.1498ZM0.479508 20.1498H1.27177V19.6419H0.479508V20.1498ZM2.69602 20.1498H3.48525V19.6419H2.69602V20.1498ZM3.48525 18.1181H3.6425V17.6101H3.48525V18.1181ZM0.322266 18.112H0.479508V17.6041H0.322266V18.112ZM1.74349 15.5723H1.90376V16.0742H1.74652L1.74349 15.5723ZM2.061 15.5723H2.22127V16.0742H2.061V15.5723ZM2.061 14.5504H2.22127V15.0584H2.061V14.5504ZM1.74652 14.5504H1.90376V15.0584H1.74652V14.5504ZM0.639774 28.2768H0.954258V28.7848H0.639774V28.2768ZM2.85326 18.62H3.0105V18.112H2.85326V18.62ZM0.954258 18.62H1.1115V18.112H0.957282L0.954258 18.62ZM1.74652 18.112H2.22127V18.62H1.74349L1.74652 18.112Z" fill="#B20000"/>
</g>
<defs>
<clipPath id="clip0_1_16368">
<rect x="0.322266" y="0.31604" width="30" height="30" rx="15" fill="white"/>
</clipPath>
</defs>
</svg>
