<svg width="31" height="31" viewBox="0 0 31 31" fill="none" xmlns="http://www.w3.org/2000/svg">
<g clip-path="url(#clip0_1_16363)">
<path d="M0.288208 0.165771H30.2882V30.1658H0.288208V0.165771Z" fill="#EE1C25"/>
<path d="M0.288208 0.165771H30.2882V20.1638H0.288208V0.165771Z" fill="#0B4EA2"/>
<path d="M0.288208 0.165771H30.2882V10.1677H0.288208V0.165771Z" fill="white"/>
<path d="M12.1945 23.3396C9.50501 22.0505 5.66125 19.4724 5.66125 14.3865C5.66125 9.30054 5.90149 6.99194 5.90149 6.99194H18.4874C18.4874 6.99194 18.7335 9.30054 18.7335 14.3865C18.7335 19.4724 14.8781 22.0447 12.1945 23.3396Z" fill="white"/>
<path d="M12.1945 22.6658C9.72766 21.4763 6.20032 19.1208 6.20032 14.4509C6.20032 9.78101 6.42297 7.66577 6.42297 7.66577H17.9659C17.9659 7.66577 18.1886 9.78687 18.1886 14.4509C18.1886 19.115 14.6613 21.4822 12.1945 22.6658Z" fill="#EE1C25"/>
<path d="M12.7218 13.2323C13.3898 13.244 14.6964 13.2675 15.8566 12.8807C15.8566 12.8807 15.8214 13.2909 15.8214 13.7772C15.8214 14.2635 15.8566 14.6737 15.8566 14.6737C14.8366 14.3927 13.7787 14.2741 12.7218 14.3221V16.9003H11.6671V14.3221C10.6102 14.2741 9.55234 14.3927 8.53235 14.6737C8.53235 14.6737 8.56751 14.2635 8.56751 13.7772C8.56751 13.2909 8.53235 12.8807 8.53235 12.8807C9.69836 13.2675 10.9991 13.244 11.6671 13.2323V11.6093C10.8268 11.5887 9.9889 11.7095 9.1886 11.9667C9.1886 11.9667 9.2179 11.5565 9.2179 11.0702C9.2179 10.5839 9.1886 10.1678 9.1886 10.1678C10.1847 10.5018 11.0577 10.5311 11.6613 10.5194C11.632 9.49988 11.3331 8.21082 11.3331 8.21082C11.3331 8.21082 11.9484 8.25769 12.1945 8.25769C12.4406 8.25769 13.0558 8.21082 13.0558 8.21082C13.0558 8.21082 12.757 9.49988 12.7218 10.5253C13.562 10.55 14.4002 10.4311 15.2003 10.1737C15.2003 10.1737 15.171 10.5839 15.171 11.0702C15.171 11.5565 15.2003 11.9667 15.2003 11.9667C14.2042 11.6327 13.3312 11.6093 12.7218 11.6151V13.2323Z" fill="white"/>
<path d="M12.1945 16.619C10.9523 16.619 10.2843 18.3417 10.2843 18.3417C10.2843 18.3417 9.91516 17.5214 8.90149 17.5214C8.21594 17.5214 7.71204 18.1366 7.38977 18.705C8.63782 20.6854 10.63 21.91 12.1945 22.6659C13.7589 21.91 15.7511 20.6854 16.9991 18.6991C16.6769 18.1366 16.173 17.5272 15.4874 17.5272C14.4738 17.5272 14.1046 18.3475 14.1046 18.3475C14.1046 18.3475 13.4366 16.619 12.1945 16.619Z" fill="#0B4EA2"/>
</g>
<defs>
<clipPath id="clip0_1_16363">
<rect x="0.288208" y="0.165771" width="30" height="30" rx="15" fill="white"/>
</clipPath>
</defs>
</svg>
