<svg width="31" height="30" viewBox="0 0 31 30" fill="none" xmlns="http://www.w3.org/2000/svg">
<g clip-path="url(#clip0_1_16369)">
<path fill-rule="evenodd" clip-rule="evenodd" d="M-0.863281 -1.11328H31.3633V31.1133H-0.863281V-1.11328Z" fill="#00ABC2"/>
<path fill-rule="evenodd" clip-rule="evenodd" d="M3.93988 27.8504C4.12573 28.0256 4.06201 28.3283 4.57709 28.2911C5.35767 28.2911 5.37891 27.8132 5.37891 27.4787C5.37891 27.1441 4.21069 26.6822 4.15759 26.1883C4.10449 25.6945 4.42841 25.5617 4.69922 25.5617C4.96472 25.5617 5.15588 25.721 5.15588 25.8538C5.15588 25.9865 5.02313 26.029 4.83728 26.029C4.65143 26.029 4.91693 25.9334 4.75232 25.8538C4.58771 25.7741 4.48682 25.9706 4.48682 26.0927C4.48682 26.2096 4.89038 26.2467 5.15588 26.1618C5.20898 26.4273 5.24084 26.4432 4.85852 26.8946C5.12933 26.7193 5.15588 26.6822 5.45325 26.7777C5.15588 26.5229 5.37891 26.0025 5.38953 25.8697C5.40015 25.737 5.33643 25.5777 5.21429 25.498C4.99658 25.3069 4.52399 25.2962 4.24255 25.4237C3.82837 25.6042 3.80713 26.1458 3.91864 26.3264L5.0603 27.4946C5.13995 27.6327 5.1665 28.015 4.68329 28.0362C4.16821 28.0734 3.99298 27.3778 3.90271 27.1441C3.78058 27.399 3.64783 28.0999 3.13275 28.0575C2.64954 28.0415 2.55396 27.6592 2.63361 27.5211L3.80713 26.3264C3.91333 26.1458 3.8974 25.6042 3.48853 25.4237C3.20178 25.2962 2.72919 25.3069 2.51147 25.5033C2.39465 25.5777 2.32562 25.737 2.33624 25.8697C2.34686 26.0025 2.56989 26.5229 2.27252 26.7724C2.56989 26.6769 2.59113 26.7193 2.86194 26.8946C2.49023 26.4432 2.51147 26.422 2.56989 26.1565C2.83539 26.2467 3.24426 26.2096 3.24426 26.0927C3.24426 25.9706 3.13806 25.7741 2.97345 25.8538C2.81415 25.9334 3.07965 26.029 2.8938 26.029C2.70264 26.029 2.56989 25.9919 2.56989 25.8538C2.56989 25.7157 2.75574 25.5617 3.02655 25.5617C3.29736 25.5617 3.62128 25.6998 3.56287 26.1883C3.50977 26.6769 2.315 27.2132 2.315 27.5477C2.315 27.8822 2.39996 28.2911 3.18054 28.2911C3.69562 28.3283 3.75403 28.0256 3.93988 27.8451V27.8504Z" fill="#FFEC2D"/>
<path fill-rule="evenodd" clip-rule="evenodd" d="M3.87628 20.8411C4.06213 20.6605 4.21082 20.1242 4.72589 20.1667C5.50647 20.1667 5.80383 20.5968 5.80383 20.9313C5.80383 21.2659 4.21081 23.9952 4.15771 24.4891C4.10461 24.9776 4.42853 25.1157 4.69934 25.1157C4.96484 25.1157 5.15601 24.9564 5.15601 24.8183C5.15601 24.6802 5.02325 24.6431 4.8374 24.6431C4.65155 24.6431 4.91174 24.7387 4.75244 24.8183C4.59314 24.898 4.48694 24.7015 4.48694 24.5847C4.48694 24.4625 4.88519 24.4254 5.15601 24.5156C5.20911 24.2501 5.23566 24.2289 4.85864 23.7775C5.12946 23.9528 5.15601 23.9899 5.45337 23.8944C5.15601 24.1492 5.37903 24.6696 5.38965 24.8024C5.40027 24.9351 5.33655 25.0944 5.20911 25.1741C4.9967 25.3706 4.5188 25.3759 4.24268 25.2484C3.82849 25.0679 3.80725 24.5263 3.91876 24.3457L5.45337 21.0269C5.53302 20.8889 5.32062 20.4428 4.83209 20.4216C4.32233 20.3791 4.14178 20.9154 4.05682 21.1491L4.75244 21.096C4.75244 21.096 4.77899 21.2022 4.75244 21.2765C4.39136 21.2977 4.05682 21.3668 4.05682 21.3668L4.03027 21.7172H4.37543L4.34357 21.8765C4.34357 21.8765 4.05682 21.8553 4.02496 21.8765C3.99841 21.8978 3.97186 22.2323 3.97186 22.2323C3.97186 22.2323 3.91876 22.2482 3.86566 22.2482C3.80194 22.2482 3.74884 22.2323 3.74884 22.2323C3.74884 22.2323 3.72229 21.8978 3.69574 21.8765C3.66919 21.8553 3.37714 21.8765 3.37714 21.8765L3.35059 21.7172H3.69574L3.66919 21.3668C3.66919 21.3668 3.32935 21.2977 2.96826 21.2765C2.94171 21.2075 2.96826 21.1013 2.96826 21.1013L3.66919 21.1544C3.57892 20.9154 3.40369 20.3791 2.88861 20.4216C2.4054 20.4375 2.18768 20.8889 2.26733 21.0269L3.80725 24.3457C3.91345 24.5263 3.89221 25.0679 3.48334 25.2484C3.2019 25.3759 2.72931 25.3706 2.5116 25.1741C2.38947 25.0944 2.32574 24.9351 2.33636 24.8024C2.34698 24.6696 2.5647 24.1492 2.26733 23.8997C2.5647 23.9952 2.59125 23.9528 2.86206 23.7775C2.49036 24.2289 2.5116 24.2501 2.5647 24.5156C2.83551 24.4254 3.23907 24.4625 3.23907 24.5847C3.23907 24.7015 3.13287 24.898 2.97357 24.8183C2.80896 24.7387 3.07977 24.6431 2.88861 24.6431C2.70276 24.6431 2.57001 24.6802 2.57001 24.8183C2.57001 24.9564 2.75586 25.1157 3.02667 25.1157C3.29749 25.1157 3.61609 24.9776 3.56299 24.4838C3.50989 23.9952 1.91687 21.2659 1.91687 20.926C1.91687 20.5968 2.21423 20.1667 2.99481 20.1667C3.50989 20.1242 3.69043 20.6605 3.87628 20.8411Z" fill="#FFEC2D"/>
<path fill-rule="evenodd" clip-rule="evenodd" d="M3.87634 19.487C4.0622 19.6676 4.21088 20.2039 4.72595 20.1614C5.50653 20.1614 5.80389 19.7313 5.80389 19.3968C5.80389 19.0622 4.21088 16.3329 4.15778 15.839C4.10468 15.3505 4.42859 15.2124 4.6994 15.2124C4.96491 15.2124 5.15607 15.3717 5.15607 15.5098C5.15607 15.6479 5.02332 15.685 4.83746 15.685C4.65161 15.685 4.91711 15.5894 4.7525 15.5098C4.58789 15.4301 4.487 15.6266 4.487 15.7434C4.487 15.8656 4.88525 15.9027 5.15607 15.8125C5.20917 16.078 5.23572 16.0992 4.8587 16.5506C5.12952 16.3753 5.15607 16.3382 5.45343 16.4337C5.15607 16.1789 5.37909 15.6585 5.38971 15.5257C5.40033 15.393 5.33661 15.2337 5.20917 15.154C4.99677 14.9575 4.51886 14.9522 4.24274 15.0797C3.82855 15.2602 3.80731 15.8018 3.91882 15.9824L5.45343 19.3012C5.53308 19.4392 5.32068 19.8853 4.83215 19.9065C4.32239 19.949 4.14185 19.4127 4.05689 19.179L4.7525 19.2321C4.7525 19.2321 4.77905 19.1259 4.7525 19.0516C4.39142 19.0251 4.05689 18.9613 4.05689 18.9613L4.03033 18.6109H4.36487L4.33832 18.4516C4.33832 18.4516 4.05157 18.4728 4.01971 18.4516C3.99847 18.4303 3.96661 18.0958 3.96661 18.0958C3.96661 18.0958 3.91351 18.0799 3.86041 18.0799C3.79669 18.0799 3.74359 18.0958 3.74359 18.0958C3.74359 18.0958 3.71704 18.4303 3.69049 18.4516C3.66394 18.4728 3.37189 18.4516 3.37189 18.4516L3.34534 18.6109H3.69049L3.66394 18.9613C3.66394 18.9613 3.3241 19.0251 2.96301 19.0516C2.93646 19.1206 2.96301 19.2268 2.96301 19.2268L3.66394 19.1737C3.57367 19.4127 3.39844 19.949 2.88336 19.9065C2.40015 19.8906 2.18243 19.4392 2.2674 19.3012L3.802 15.9824C3.9082 15.8018 3.88696 15.2602 3.47809 15.0797C3.19666 14.9522 2.72406 14.9575 2.50635 15.154C2.38422 15.2337 2.3205 15.393 2.33112 15.5257C2.34174 15.6585 2.55945 16.1789 2.26208 16.4284C2.55945 16.3329 2.586 16.3753 2.85681 16.5506C2.4798 16.0992 2.50635 16.078 2.55945 15.8125C2.83026 15.9027 3.23383 15.8656 3.23383 15.7434C3.23383 15.6213 3.12762 15.4301 2.96832 15.5098C2.80902 15.5894 3.07452 15.685 2.88336 15.685C2.69751 15.685 2.56476 15.6479 2.56476 15.5098C2.56476 15.3717 2.75061 15.2177 3.02142 15.2177C3.29224 15.2177 3.61084 15.3505 3.55774 15.8443C3.50464 16.3329 1.91162 19.0622 1.91162 19.4021C1.91162 19.7313 2.20898 20.1614 2.98956 20.1614C3.50464 20.2039 3.68518 19.6676 3.87103 19.487H3.87634Z" fill="#FFEC2D"/>
<path fill-rule="evenodd" clip-rule="evenodd" d="M3.87628 10.4971C4.06213 10.3165 4.21082 9.78022 4.72589 9.81739C5.50647 9.81739 5.80383 10.2528 5.80383 10.5874C5.80383 10.9166 4.21081 13.6459 4.15771 14.1398C4.10461 14.6283 4.42853 14.7664 4.69934 14.7664C4.96484 14.7664 5.15601 14.6071 5.15601 14.4743C5.15601 14.3416 5.02325 14.2938 4.8374 14.2938C4.65155 14.2938 4.91174 14.3947 4.75244 14.4743C4.59314 14.554 4.48694 14.3575 4.48694 14.2354C4.48694 14.1185 4.88519 14.0761 5.15601 14.1663C5.20911 13.9008 5.23566 13.8849 4.85864 13.4335C5.12946 13.6088 5.15601 13.6459 5.45337 13.5504C5.15601 13.8052 5.37903 14.3256 5.38965 14.4531C5.40027 14.5805 5.33655 14.7451 5.20911 14.8248C4.9967 15.0212 4.5188 15.0319 4.24268 14.9044C3.82849 14.7186 3.80725 14.1769 3.91876 14.0017L5.45337 10.6829C5.53302 10.5449 5.32062 10.0935 4.83209 10.0723C4.32233 10.0351 4.14178 10.5714 4.05682 10.8051L4.75244 10.752C4.75244 10.752 4.77899 10.8582 4.75244 10.9325C4.39136 10.9537 4.05682 11.0175 4.05682 11.0175L4.03027 11.3732H4.37543L4.34357 11.5325C4.34357 11.5325 4.05682 11.5113 4.02496 11.5325C3.99841 11.5485 3.97186 11.883 3.97186 11.883C3.97186 11.883 3.91876 11.9042 3.86566 11.9042C3.80194 11.9042 3.74884 11.883 3.74884 11.883C3.74884 11.883 3.72229 11.5485 3.69574 11.5325C3.66919 11.5113 3.37714 11.5325 3.37714 11.5325L3.35059 11.3732H3.69574L3.66919 11.0175C3.66919 11.0175 3.32935 10.9537 2.96826 10.9325C2.94171 10.8635 2.96826 10.752 2.96826 10.752L3.66919 10.8051C3.57892 10.5714 3.40369 10.0351 2.88861 10.0723C2.4054 10.0935 2.18768 10.5449 2.26733 10.6829L3.80725 14.0017C3.91345 14.1769 3.89221 14.7186 3.48334 14.9044C3.2019 15.0319 2.72931 15.0212 2.5116 14.8248C2.38947 14.7504 2.32574 14.5911 2.33636 14.4531C2.34698 14.315 2.5647 13.8052 2.26733 13.5504C2.5647 13.6459 2.59125 13.6088 2.86206 13.4335C2.49036 13.8849 2.5116 13.9061 2.5647 14.1663C2.83551 14.0814 3.23907 14.1185 3.23907 14.2354C3.23907 14.3522 3.13287 14.554 2.97357 14.4743C2.80896 14.3947 3.07977 14.2938 2.88861 14.2938C2.70276 14.2938 2.57001 14.3363 2.57001 14.4743C2.57001 14.6124 2.75586 14.7664 3.02667 14.7664C3.29749 14.7664 3.61609 14.6283 3.56299 14.1398C3.50989 13.6459 1.91687 10.9166 1.91687 10.582C1.91687 10.2528 2.21423 9.81739 2.99481 9.81739C3.50989 9.78022 3.69043 10.3165 3.87628 10.4971Z" fill="#FFEC2D"/>
<path fill-rule="evenodd" clip-rule="evenodd" d="M3.87628 9.14292C4.06213 9.32346 4.21082 9.85446 4.72589 9.81729C5.50647 9.81729 5.80383 9.38718 5.80383 9.05265C5.80383 8.71811 4.21081 5.98874 4.15771 5.49491C4.10461 5.00638 4.42853 4.86832 4.69934 4.86832C4.96484 4.86832 5.15601 5.02762 5.15601 5.16037C5.15601 5.29312 5.02325 5.34091 4.8374 5.34091C4.65155 5.34091 4.91705 5.24002 4.75244 5.16037C4.58783 5.08072 4.48694 5.2825 4.48694 5.39932C4.48694 5.51615 4.88519 5.55863 5.15601 5.46836C5.20911 5.73386 5.23566 5.74979 4.85864 6.20114C5.12946 6.02591 5.15601 5.98874 5.45337 6.08432C5.15601 5.82944 5.37903 5.30905 5.38965 5.18161C5.40027 5.05417 5.33655 4.88956 5.20911 4.80991C4.9967 4.61344 4.5188 4.60282 4.24268 4.73026C3.82849 4.91611 3.80725 5.45774 3.91876 5.63297L5.45337 8.95175C5.53302 9.08982 5.32062 9.54117 4.83209 9.56241C4.32233 9.59958 4.14178 9.06327 4.05682 8.82962L4.75244 8.88272C4.75244 8.88272 4.77899 8.77652 4.75244 8.70218C4.51915 8.68697 4.28691 8.65861 4.05682 8.61722L4.03027 8.26145H4.36481L4.33826 8.10214C4.33826 8.10214 4.05151 8.12338 4.01965 8.10214C3.99841 8.08621 3.96655 7.75168 3.96655 7.75168C3.96655 7.75168 3.91345 7.73044 3.86035 7.73044C3.79663 7.73044 3.74353 7.75168 3.74353 7.75168C3.74353 7.75168 3.71698 8.08621 3.69043 8.10745C3.66388 8.12338 3.37183 8.10745 3.37183 8.10745L3.34528 8.26676H3.69043L3.66388 8.61722C3.66388 8.61722 3.32404 8.68094 2.96295 8.70218C2.94811 8.76145 2.94811 8.82346 2.96295 8.88272L3.66388 8.82962C3.57361 9.06327 3.39838 9.59958 2.8833 9.56241C2.40009 9.54117 2.18237 9.08982 2.26733 8.95175L3.80194 5.63297C3.90814 5.45774 3.8869 4.91611 3.47803 4.73026C3.19659 4.60282 2.724 4.61344 2.50629 4.80991C2.38416 4.88956 2.32043 5.04355 2.33105 5.18161C2.34167 5.31967 2.55939 5.82944 2.26202 6.08432C2.55939 5.98874 2.58594 6.03122 2.85675 6.20114C2.47974 5.74979 2.50629 5.73386 2.55939 5.46836C2.8302 5.55332 3.23376 5.52146 3.23376 5.39932C3.23376 5.27719 3.12756 5.08072 2.96826 5.16037C2.80896 5.24002 3.07446 5.34091 2.8833 5.34091C2.69745 5.34091 2.5647 5.29843 2.5647 5.16037C2.5647 5.02231 2.75055 4.86832 3.02136 4.86832C3.29218 4.86832 3.61609 5.00638 3.56299 5.49491C3.50989 5.98874 1.91687 8.71811 1.91687 9.05265C1.91687 9.38718 2.21423 9.81729 2.99481 9.81729C3.50989 9.85446 3.69043 9.32346 3.87628 9.14292Z" fill="#FFEC2D"/>
<path fill-rule="evenodd" clip-rule="evenodd" d="M3.93988 2.13374C4.12573 1.9532 4.06201 1.65584 4.57709 1.6877C5.35767 1.6877 5.37891 2.1656 5.37891 2.50014C5.37891 2.83467 4.21069 3.30196 4.15759 3.79048C4.10449 4.28432 4.42841 4.42238 4.69922 4.42238C4.96472 4.42238 5.15588 4.26308 5.15588 4.12502C5.15588 3.98695 5.02313 3.95509 4.84259 3.95509C4.66205 3.95509 4.92224 4.05599 4.75763 4.13033C4.59302 4.20467 4.49213 4.01351 4.49213 3.89668C4.49213 3.77986 4.89569 3.73738 5.16119 3.82765C5.21429 3.56215 5.24615 3.54091 4.86383 3.08956C5.12933 3.26479 5.16119 3.30196 5.45325 3.21169C5.15588 3.46657 5.37891 3.98695 5.38953 4.1144C5.40015 4.24184 5.33643 4.40645 5.21429 4.4861C4.99658 4.68257 4.52399 4.69319 4.24255 4.56575C3.82837 4.3799 3.80713 3.83827 3.91864 3.66304L5.0603 2.49483C5.13995 2.35146 5.1665 1.96913 4.68329 1.94789C4.16821 1.91072 3.99298 2.61165 3.90271 2.83998C3.78058 2.5851 3.64783 1.88417 3.13275 1.92134C2.64954 1.94258 2.55396 2.32491 2.63361 2.46297L3.80713 3.65773C3.91333 3.83296 3.8974 4.37459 3.48853 4.56044C3.20178 4.68788 2.72919 4.67726 2.51147 4.48079C2.39465 4.40114 2.32562 4.24715 2.33624 4.10909C2.34686 3.97102 2.56989 3.46126 2.27252 3.20638C2.56989 3.30196 2.59113 3.25948 2.86194 3.08424C2.49023 3.5356 2.51147 3.56215 2.56989 3.82234C2.83539 3.73207 3.24426 3.76924 3.24426 3.89137C3.24426 4.00819 3.13806 4.20998 2.97345 4.12502C2.81415 4.05068 3.07965 3.94978 2.8938 3.94978C2.70264 3.94978 2.56989 3.99226 2.56989 4.12502C2.56989 4.25777 2.75574 4.42238 3.02655 4.42238C3.29736 4.42238 3.62128 4.28432 3.56287 3.79048C3.50977 3.30196 2.315 2.76564 2.315 2.43111C2.315 2.09657 2.39996 1.6877 3.18054 1.6877C3.69562 1.65053 3.75403 1.9532 3.93988 2.13374Z" fill="#FFEC2D"/>
<path d="M21.6271 13.3619C21.6271 10.9967 19.6039 9.07935 17.1082 9.07935C14.6125 9.07935 12.5894 10.9967 12.5894 13.3619C12.5894 15.7271 14.6125 17.6445 17.1082 17.6445C19.6039 17.6445 21.6271 15.7271 21.6271 13.3619Z" fill="#FFEC2D"/>
<path fill-rule="evenodd" clip-rule="evenodd" d="M16.8958 6.52521C16.8533 6.52521 16.6515 7.9483 16.5771 8.26691C16.5028 8.98376 17.533 8.95721 17.363 8.24036L16.8958 6.5199V6.52521ZM17.2568 20.3207C17.294 20.3207 17.602 18.9136 17.7029 18.6003C17.825 17.894 16.7949 17.8569 16.9064 18.579L17.2568 20.3207ZM10.0564 13.3327C10.0564 13.3699 11.5379 13.6672 11.8671 13.7628C12.6105 13.8849 12.6636 12.9132 11.899 13.0194L10.0564 13.338V13.3327ZM24.4838 13.5026C24.4838 13.4655 22.9864 13.2212 22.6519 13.1362C21.9031 13.046 21.8978 14.0177 22.6519 13.8849L24.4838 13.5026ZM11.5751 8.81915C11.5485 8.8457 12.5256 9.9502 12.722 10.221C13.2318 10.752 13.9062 10.0086 13.2318 9.64752L11.5751 8.82446V8.81915ZM22.7846 17.8994C22.8112 17.8728 21.7385 16.8533 21.5155 16.6037C20.9579 16.1152 20.3579 16.9064 21.0588 17.2144L22.7846 17.9047V17.8994ZM13.8106 7.27924C13.7787 7.29517 14.2354 8.66516 14.3098 8.98907C14.5646 9.66345 15.4886 9.22272 15.0107 8.64392L13.8159 7.27924H13.8106ZM20.3473 19.6198C20.3845 19.6039 20.0287 18.2073 19.9809 17.8834C19.7738 17.1931 18.8233 17.5648 19.2534 18.1808L20.3526 19.6145L20.3473 19.6198ZM21.9562 8.23505C21.9244 8.2085 20.7455 9.11652 20.4588 9.29706C19.8906 9.77496 20.6606 10.4228 21.0535 9.79089L21.9562 8.23505ZM12.2388 18.5206C12.2654 18.5472 13.5132 17.7241 13.8106 17.5595C14.4106 17.1241 13.6938 16.4232 13.2531 17.0285L12.2441 18.5206H12.2388ZM10.3803 10.8688C10.3644 10.9007 11.6547 11.6494 11.9362 11.8459C12.5999 12.191 12.9875 11.2883 12.2282 11.145L10.3803 10.8688ZM23.8519 16.0939C23.8679 16.0621 22.6306 15.2284 22.3651 15.016C21.7279 14.623 21.2765 15.4992 22.0253 15.6904L23.8519 16.0939ZM19.572 6.91284C19.5349 6.90222 18.7968 8.1554 18.6003 8.42621C18.6006 8.51269 18.6281 8.59689 18.6787 8.66699C18.7293 8.7371 18.8007 8.78959 18.8826 8.81712C18.9646 8.84464 19.0532 8.84581 19.1359 8.82046C19.2185 8.79512 19.2912 8.74452 19.3437 8.67578L19.572 6.91284ZM14.5859 19.8853C14.623 19.9012 15.4514 18.6959 15.6638 18.4357C16.0515 17.8197 15.1116 17.4268 14.9363 18.1383L14.5859 19.8853ZM10.4706 16.2054C10.4865 16.2373 11.9574 15.8868 12.3026 15.8337C13.0247 15.632 12.6212 14.7399 11.9839 15.1541L10.4706 16.2054ZM23.8572 10.752C23.8466 10.7202 22.3545 10.9697 22.0093 11.0016C21.2659 11.1556 21.6111 12.0742 22.2748 11.7025L23.8572 10.752Z" fill="#FFEC2D"/>
<path fill-rule="evenodd" clip-rule="evenodd" d="M18.3613 6.61554C18.3241 6.61023 17.825 7.96429 17.6763 8.26166C17.4586 8.95197 18.4728 9.12189 18.4568 8.3891L18.3666 6.61023L18.3613 6.61554ZM15.7859 20.204C15.8231 20.2146 16.4231 18.8924 16.593 18.6003C16.8585 17.9313 15.8602 17.6976 15.8231 18.4251L15.7806 20.204H15.7859ZM15.2708 6.74829C15.2336 6.75891 15.3717 8.19263 15.3717 8.52185C15.4726 9.22809 16.4656 8.98383 16.1364 8.32538L15.2708 6.74829ZM18.8817 20.1243C18.9188 20.119 18.8817 18.68 18.9082 18.3508C18.8604 17.6339 17.8462 17.8145 18.1329 18.4941L18.8763 20.1243H18.8817ZM12.7114 7.93774C12.6795 7.95898 13.3857 9.22809 13.5185 9.53076C13.9008 10.152 14.7239 9.56793 14.1451 9.0741L12.7114 7.93774ZM21.4623 18.9774C21.4942 18.9561 20.8782 17.6392 20.772 17.3312C20.4375 16.6887 19.5773 17.2197 20.1136 17.7454L21.4623 18.9774ZM10.8422 9.72192C10.821 9.75378 11.9626 10.699 12.2016 10.9432C12.791 11.3893 13.338 10.5609 12.6158 10.3007L10.8422 9.72192ZM23.2784 17.1401C23.2996 17.1082 22.2323 16.0887 22.0093 15.8338C21.457 15.3506 20.8517 16.1418 21.5526 16.4498L23.2784 17.1401ZM10.0245 11.9468C10.0139 11.984 11.421 12.5203 11.729 12.6743C12.4406 12.9133 12.6689 11.9628 11.8936 11.9415L10.0245 11.9468ZM24.2236 15.0161C24.2395 14.9842 22.8748 14.3576 22.5775 14.1824C21.8871 13.8956 21.5845 14.8302 22.3544 14.9045L24.2236 15.0161ZM9.97668 14.6815C9.98199 14.7134 11.5007 14.6921 11.8458 14.7187C12.5999 14.6815 12.4193 13.7204 11.6971 13.9806L9.97668 14.6815ZM24.3245 12.292C24.3245 12.2548 22.8058 12.1752 22.4659 12.1274C21.7066 12.1168 21.8181 13.0885 22.5562 12.8708L24.3245 12.2867V12.292ZM11.2776 17.5171C11.2989 17.5489 12.6583 16.9011 12.9769 16.779C13.6353 16.4338 13.03 15.6426 12.5043 16.179L11.2776 17.5171ZM23.0819 9.42987C23.0607 9.39801 21.6641 9.95557 21.3296 10.0565C20.6446 10.3591 21.1915 11.1875 21.7544 10.6884L23.0819 9.42987ZM13.4866 19.3968C13.5185 19.4128 14.4902 18.3083 14.7345 18.0746C15.1965 17.5065 14.3097 17.0126 14.0495 17.7029L13.4866 19.3968ZM20.9048 7.51294C20.8782 7.4917 19.8268 8.52716 19.5666 8.74487C19.0675 9.28119 19.9171 9.83343 20.2251 9.16437L20.8995 7.51294H20.9048Z" fill="#FFEC2D"/>
<path fill-rule="evenodd" clip-rule="evenodd" d="M10.1985 16.2106C10.2796 16.4844 10.2912 18.018 11.9252 19.4968C13.5476 20.9647 16.3289 21.2933 16.3289 21.2933C16.3289 21.2933 16.3405 21.5014 16.1435 21.5124C15.9464 21.5343 14.9962 21.348 14.521 21.2056C14.0575 21.0742 13.6403 20.8332 13.5939 20.8442C13.536 20.8661 13.4433 21.0194 13.3042 20.9975C13.1652 20.9756 12.493 20.3184 12.1917 20.1431C11.5891 19.6507 11.0555 19.0875 10.6041 18.4671C10.2796 17.9742 10.1985 17.6456 10.0942 17.6456C9.98987 17.6456 9.60744 17.8865 9.60744 17.8865C9.60744 17.8865 9.25978 17.3936 8.95848 16.6049C8.64558 15.8162 8.68035 15.3561 8.74988 15.3233C8.831 15.2904 8.831 15.9038 9.06277 16.4625C9.29455 17.0321 9.61903 17.2074 9.61903 17.2074C9.61903 17.2074 9.41043 16.9116 9.24819 16.1777C9.08595 15.4438 9.01642 14.7318 9.13231 14.5127C9.24819 14.2936 9.35249 14.2279 9.36408 14.2388C9.38726 14.2607 9.16707 14.5784 9.31773 15.4219C9.46838 16.2653 9.87398 16.9774 9.96669 16.9445C10.0594 16.9116 9.90875 16.7364 9.85081 16.2434C9.79286 15.7505 9.90875 15.4438 10.0362 15.4C10.0942 15.3561 10.1869 15.9477 10.1985 16.2106ZM9.06277 17.6127C8.74988 17.3388 8.26316 16.3858 8.15886 16.4296C8.04297 16.4844 8.94689 17.8537 8.97007 17.9632C8.99324 18.0947 9.19025 18.4671 9.0396 18.4123C8.88895 18.3576 7.8112 17.2841 7.93867 17.4922C8.06615 17.7003 8.87736 18.6424 8.831 18.6971C8.78465 18.7519 8.15886 18.1714 8.13568 18.248C8.12409 18.3138 8.74988 18.8834 8.73829 18.9491C8.7267 19.0148 8.33269 18.5876 8.33269 18.6752C8.33269 18.7629 8.73829 19.1901 8.73829 19.2558C8.73829 19.3215 8.39063 18.9491 8.50652 19.1463C8.61082 19.3654 8.91212 19.5516 8.90053 19.6173C8.88894 19.683 8.64558 19.5297 8.64558 19.5625C8.64558 19.5954 9.09754 19.7487 9.20184 19.8692C9.31773 19.9897 10.0594 20.8003 10.6157 21.2056C11.1719 21.6109 12.7711 22.323 12.887 22.323C12.9913 22.323 13.1536 22.1039 13.1188 22.0162C13.084 21.9286 11.5196 21.4247 11.0908 21.0523C10.6504 20.6798 9.58427 19.7816 9.49156 19.7378C9.41044 19.683 9.16707 19.7049 9.16707 19.6502C9.16707 19.5954 9.47997 19.683 9.45679 19.6502C9.4452 19.6173 9.02801 19.442 9.0396 19.4092C9.06278 19.3763 9.32932 19.4749 9.32932 19.442C9.32932 19.4092 8.84259 19.1572 8.86577 19.1024C8.87736 19.0477 9.22502 19.2558 9.22502 19.212C9.22502 19.1901 8.76147 18.8834 8.77306 18.8286C8.78465 18.7738 9.13231 19.0696 9.12072 19.0039C9.10913 18.9381 8.84259 18.5657 8.84259 18.5219C8.84259 18.4671 9.25978 18.8943 9.30614 18.8067C9.32931 18.73 9.15549 18.018 9.16707 18.007C9.17866 17.9961 9.47997 18.1604 9.52632 18.0618C9.58426 17.9523 9.31772 17.8099 9.06277 17.6127ZM14.4052 23.0021C14.185 23.035 14.0807 22.9583 14.2081 22.783C14.382 22.783 14.8455 22.6406 15.0078 22.5749C15.17 22.5092 15.3438 22.4215 15.4829 22.3011C15.622 22.1587 15.7147 22.3777 15.6336 22.4982C15.5756 22.5749 15.3091 22.7173 15.1121 22.794C14.8223 22.8816 14.5674 23.0131 14.4052 23.0021ZM15.8537 22.4435C15.7031 22.2901 15.8306 22.1806 16.0507 22.0601C16.3752 21.8958 16.2825 21.6657 16.6997 21.4795C16.8851 21.37 19.481 20.3841 20.327 19.8583C21.1729 19.3325 23.5486 17.6346 24.186 16.4625C24.8118 15.3014 24.5105 15.2137 24.6032 15.1699C24.6843 15.1152 24.777 15.3342 24.7654 15.5971C24.7422 15.8491 24.5337 16.6159 24.6032 16.6925C24.6727 16.7692 25.5535 16.0901 25.9243 15.2685C26.2951 14.447 26.5733 13.5925 26.7471 13.5925C26.9325 13.5925 26.4458 14.9947 26.1329 15.5424C25.8316 16.0901 25.4723 16.3639 25.5535 16.4844C25.6462 16.594 26.5501 15.8819 26.863 15.3561C27.1643 14.8194 27.454 14.3484 27.5119 14.447C27.4197 15.0886 27.1521 15.6965 26.7355 16.2106C26.2488 16.7364 25.6693 17.1198 25.7621 17.1964C25.8432 17.2841 26.5037 17.3717 27.1875 16.9335C27.8828 16.4844 27.9523 15.8381 28.0334 15.871C28.1261 15.9038 27.9523 16.7911 27.2918 17.3388C26.6312 17.8865 25.7621 17.9413 25.7852 18.0618C25.8316 18.1713 27.6742 17.5579 27.6394 17.7003C27.6047 17.8318 25.2522 18.7081 25.229 18.7957C25.229 18.8615 25.6346 18.8834 26.272 18.741C26.8977 18.6095 27.5004 18.1385 27.5815 18.248C27.6047 18.4014 27.1295 18.7738 26.411 18.9491C25.6809 19.1244 25.3217 19.3544 25.2985 19.4092C25.2869 19.4639 26.5964 19.2558 26.5964 19.3215C26.5964 19.3873 24.8813 19.7049 24.8697 19.7926C24.8465 19.8692 26.4921 19.4749 26.469 19.5735C26.4226 19.6502 24.2323 20.2636 24.2555 20.2965C24.2671 20.3403 26.0865 19.924 26.0518 19.9897C26.0054 20.0664 22.9924 20.8661 22.9692 20.9208C22.946 20.9647 25.6346 20.3512 25.6114 20.406C25.5882 20.4608 24.2208 20.7784 24.2208 20.8113C24.2208 20.8442 25.3217 20.647 25.2985 20.7018C25.2869 20.7456 22.5172 21.4138 22.4593 21.5124C22.4013 21.6219 23.8963 21.2385 23.8731 21.4357C23.8499 21.6329 20.663 22.6406 20.6514 22.4544C20.6283 22.2682 22.5868 21.7972 22.5752 21.7424C22.552 21.6876 21.4511 21.8519 21.4279 21.7533C21.4163 21.6438 22.158 21.4247 22.1 21.3809C22.0421 21.3261 21.4858 21.5343 21.5322 21.4138C21.5901 21.2933 22.6447 20.8332 22.6215 20.8003C22.6099 20.7675 22.2391 20.9099 22.2739 20.8003C22.3202 20.6798 24.5568 20.0664 24.5221 19.9897C24.4873 19.924 23.4907 20.1431 23.398 20.165C23.3632 20.0993 24.7886 19.5954 24.7654 19.5078C24.7191 19.4311 24.0006 19.8035 23.9542 19.7049C23.931 19.5954 25.2174 19.1244 25.1363 19.0477C25.0551 18.971 24.4757 19.2449 24.3946 19.1682C24.3135 19.0915 25.6114 18.248 25.4144 18.2261C25.2174 18.2152 24.974 18.489 24.9508 18.3138C24.974 18.0947 25.9591 17.7332 25.7389 17.5579C25.3912 17.4593 24.2208 17.6346 23.734 17.9085C23.2473 18.1823 21.6249 19.7049 21.2309 19.9459C20.8369 20.176 19.4926 20.7127 19.2376 20.8222C18.8436 20.9537 18.7741 21.1509 18.3685 21.348C17.6384 21.5343 17.65 21.7424 17.3023 21.8629C17.1748 21.8958 15.8653 22.4873 15.8537 22.4435ZM14.0227 23.2102C13.8025 23.3198 13.6055 23.5827 13.733 23.6922C13.8025 23.8237 14.0227 23.3965 14.1966 23.4184L15.1237 23.4622C15.622 23.4951 15.8653 23.3636 16.1435 23.3855C16.4216 23.4074 17.0358 23.2431 17.3255 23.2431C17.6152 23.2431 17.6732 23.276 17.6963 23.1555C17.7311 23.0459 16.7924 23.1226 16.3752 23.1117C15.958 23.0897 15.4365 23.1883 15.1237 23.1883C14.8339 23.1774 14.3356 23.0897 14.0227 23.2102Z" fill="#FFEC2D"/>
<path d="M15.4134 23.0789C15.4134 22.9881 15.3252 22.9146 15.2164 22.9146C15.1076 22.9146 15.0194 22.9881 15.0194 23.0789C15.0194 23.1696 15.1076 23.2432 15.2164 23.2432C15.3252 23.2432 15.4134 23.1696 15.4134 23.0789Z" fill="#FFEC2D"/>
<path fill-rule="evenodd" clip-rule="evenodd" d="M20.0374 22.7611C20.2345 22.7283 20.7675 22.9035 21.1384 22.9802C21.8105 23.2322 23.0621 23.1117 23.0621 23.2322C23.0621 23.3527 22.981 23.4951 22.6913 23.517C22.4015 23.5389 21.6714 23.4074 21.6946 23.4074C21.7178 23.4074 22.2741 23.6594 22.1118 23.7251C21.9496 23.7908 21.4744 23.5827 21.3933 23.6375C21.3122 23.6922 21.8337 23.7908 21.741 23.8237C21.6715 23.8565 21.3122 23.7799 21.1963 23.7908C21.0804 23.8127 21.289 23.9332 21.15 23.977C21.0109 24.0318 20.7791 23.9113 20.6864 23.9442C20.5821 23.977 20.895 24.1633 20.7559 24.1852C20.6169 24.2071 20.2924 24.0975 20.107 24.0756C19.9216 24.0756 20.2808 24.2509 20.1649 24.2728C20.049 24.2838 19.7246 24.1304 19.6434 24.1304C19.5623 24.1304 19.6434 24.3495 19.5275 24.3495C19.4117 24.3495 19.2726 24.1633 19.2031 24.1633C19.1335 24.1633 19.2031 24.3823 19.0872 24.3823C18.9713 24.3823 18.9249 24.1523 18.8322 24.1633C18.7163 24.1852 18.8322 24.459 18.67 24.4371C18.5193 24.4262 18.4962 24.1523 18.3687 24.1633C18.2528 24.1852 18.3919 24.4371 18.276 24.4371C18.1601 24.4371 18.1369 24.1852 18.021 24.1633C17.9051 24.1523 17.9515 24.4043 17.882 24.4043C17.8124 24.4043 17.7429 24.1633 17.6965 24.1633C17.6618 24.1633 17.6965 24.4043 17.5575 24.3823C17.4184 24.3604 17.4184 24.1194 17.3836 24.1304C17.3373 24.1523 17.3373 24.3276 17.2446 24.3276C17.1519 24.3276 17.1403 24.1523 17.1055 24.1742C17.0592 24.1852 16.9201 24.4043 16.8274 24.3714C16.7231 24.3385 16.8506 24.1633 16.8042 24.1633C16.7579 24.1633 16.642 24.2838 16.5724 24.2728C16.5029 24.2619 16.5724 24.1194 16.5493 24.1194C16.5261 24.1194 16.3523 24.2071 16.2711 24.2071C16.19 24.2071 15.9698 24.3166 15.9119 24.218C15.8539 24.1085 16.0625 24.1085 16.1089 24.0099C16.1437 23.9113 15.993 23.6156 16.1552 23.517C16.3059 23.4074 16.8042 23.6594 17.5459 23.4841C18.8902 23.1445 19.9331 22.7502 20.0374 22.7611Z" fill="#FFEC2D"/>
</g>
<defs>
<clipPath id="clip0_1_16369">
<rect x="0.25" width="30" height="30" rx="15" fill="white"/>
</clipPath>
</defs>
</svg>
