<svg width="15" height="17" viewBox="0 0 15 17" fill="none" xmlns="http://www.w3.org/2000/svg">
<path d="M14.9823 4.69013C14.4649 4.69014 13.9525 4.58823 13.4745 4.39022C12.9964 4.19222 12.5621 3.90199 12.1962 3.53611C11.8303 3.17024 11.5401 2.73588 11.3421 2.25784C11.144 1.77979 11.0421 1.26743 11.0421 0.75H8.22712V11.773C8.22659 12.2756 8.06789 12.7653 7.77353 13.1726C7.47916 13.5799 7.06406 13.8843 6.58706 14.0425C6.11006 14.2008 5.59535 14.2049 5.11589 14.0542C4.63643 13.9036 4.21654 13.6059 3.91573 13.2033C3.61491 12.8007 3.44844 12.3137 3.4399 11.8112C3.43136 11.3087 3.58119 10.8162 3.86815 10.4037C4.15511 9.99108 4.56465 9.67928 5.03871 9.51245C5.51278 9.34562 6.02733 9.33223 6.50943 9.47417V6.73779C5.48487 6.59963 4.44255 6.77734 3.52164 7.24717C2.60074 7.717 1.84508 8.4566 1.35558 9.3672C0.866083 10.2778 0.666035 11.3161 0.782152 12.3434C0.898269 13.3706 1.32502 14.3381 2.00543 15.1164C2.68584 15.8948 3.58752 16.4471 4.59006 16.6995C5.5926 16.9519 6.64829 16.8925 7.61616 16.5291C8.58403 16.1657 9.41802 15.5157 10.0068 14.6659C10.5955 13.8161 10.9109 12.8069 10.911 11.773L10.9927 6.2012C12.1493 7.05028 13.5472 7.50715 14.982 7.50503L14.9823 4.69013Z" fill="#F59C12"/>
</svg>
